<?xml version="1.0" encoding="UTF-8" standalone="no"?>
<!DOCTYPE svg PUBLIC "-//W3C//DTD SVG 1.1//EN"
 "http://www.w3.org/Graphics/SVG/1.1/DTD/svg11.dtd">
<!-- Generated by graphviz version 11.0.0 (20240428.1522)
 -->
<!-- Pages: 1 -->
<svg width="1142pt" height="332pt"
 viewBox="0.00 0.00 1141.99 332.00" xmlns="http://www.w3.org/2000/svg" xmlns:xlink="http://www.w3.org/1999/xlink">
<g id="graph0" class="graph" transform="scale(1 1) rotate(0) translate(4 328)">
<polygon fill="white" stroke="none" points="-4,4 -4,-328 1137.99,-328 1137.99,4 -4,4"/>
<!-- [root] local_file.pet (expand) -->
<g id="node1" class="node">
<title>[root] local_file.pet (expand)</title>
<polygon fill="none" stroke="black" points="611.12,-180 523.87,-180 523.87,-144 611.12,-144 611.12,-180"/>
<text text-anchor="middle" x="567.5" y="-156.95" font-family="Times,serif" font-size="14.00">local_file.pet</text>
</g>
<!-- [root] provider[&quot;registry.terraform.io/hashicorp/local&quot;] -->
<g id="node2" class="node">
<title>[root] provider[&quot;registry.terraform.io/hashicorp/local&quot;]</title>
<polygon fill="none" stroke="black" points="269.5,-108 0,-90 269.5,-72 538.99,-90 269.5,-108"/>
<text text-anchor="middle" x="269.5" y="-84.95" font-family="Times,serif" font-size="14.00">provider[&quot;registry.terraform.io/hashicorp/local&quot;]</text>
</g>
<!-- [root] local_file.pet (expand)&#45;&gt;[root] provider[&quot;registry.terraform.io/hashicorp/local&quot;] -->
<g id="edge1" class="edge">
<title>[root] local_file.pet (expand)&#45;&gt;[root] provider[&quot;registry.terraform.io/hashicorp/local&quot;]</title>
<path fill="none" stroke="black" d="M523.53,-150.67C474.8,-139.23 395.6,-120.62 338.57,-107.23"/>
<polygon fill="black" stroke="black" points="339.49,-103.85 328.95,-104.97 337.89,-110.66 339.49,-103.85"/>
</g>
<!-- [root] random_pet.pet (expand) -->
<g id="node4" class="node">
<title>[root] random_pet.pet (expand)</title>
<polygon fill="none" stroke="black" points="793.25,-108 691.75,-108 691.75,-72 793.25,-72 793.25,-108"/>
<text text-anchor="middle" x="742.5" y="-84.95" font-family="Times,serif" font-size="14.00">random_pet.pet</text>
</g>
<!-- [root] local_file.pet (expand)&#45;&gt;[root] random_pet.pet (expand) -->
<g id="edge2" class="edge">
<title>[root] local_file.pet (expand)&#45;&gt;[root] random_pet.pet (expand)</title>
<path fill="none" stroke="black" d="M611.21,-143.52C634.68,-134.13 663.82,-122.47 688.68,-112.53"/>
<polygon fill="black" stroke="black" points="689.65,-115.91 697.64,-108.94 687.05,-109.41 689.65,-115.91"/>
</g>
<!-- [root] var.filename -->
<g id="node7" class="node">
<title>[root] var.filename</title>
<polygon fill="none" stroke="black" points="635.62,-108 557.37,-108 557.37,-72 641.62,-72 641.62,-102 635.62,-108"/>
<polyline fill="none" stroke="black" points="635.62,-108 635.62,-102"/>
<polyline fill="none" stroke="black" points="641.62,-102 635.62,-102"/>
<text text-anchor="middle" x="599.5" y="-84.95" font-family="Times,serif" font-size="14.00">var.filename</text>
</g>
<!-- [root] local_file.pet (expand)&#45;&gt;[root] var.filename -->
<g id="edge3" class="edge">
<title>[root] local_file.pet (expand)&#45;&gt;[root] var.filename</title>
<path fill="none" stroke="black" d="M575.41,-143.7C578.89,-136.07 583.08,-126.92 586.97,-118.4"/>
<polygon fill="black" stroke="black" points="590.07,-120.03 591.05,-109.48 583.71,-117.12 590.07,-120.03"/>
</g>
<!-- [root] provider[&quot;registry.terraform.io/hashicorp/random&quot;] -->
<g id="node3" class="node">
<title>[root] provider[&quot;registry.terraform.io/hashicorp/random&quot;]</title>
<polygon fill="none" stroke="black" points="811.5,-36 526.8,-18 811.5,0 1096.19,-18 811.5,-36"/>
<text text-anchor="middle" x="811.5" y="-12.95" font-family="Times,serif" font-size="14.00">provider[&quot;registry.terraform.io/hashicorp/random&quot;]</text>
</g>
<!-- [root] random_pet.pet (expand)&#45;&gt;[root] provider[&quot;registry.terraform.io/hashicorp/random&quot;] -->
<g id="edge7" class="edge">
<title>[root] random_pet.pet (expand)&#45;&gt;[root] provider[&quot;registry.terraform.io/hashicorp/random&quot;]</title>
<path fill="none" stroke="black" d="M759.55,-71.7C767.99,-63.14 778.31,-52.67 787.52,-43.33"/>
<polygon fill="black" stroke="black" points="789.99,-45.8 794.52,-36.22 785.01,-40.89 789.99,-45.8"/>
</g>
<!-- [root] random_string.random (expand) -->
<g id="node5" class="node">
<title>[root] random_string.random (expand)</title>
<polygon fill="none" stroke="black" points="952.12,-108 810.87,-108 810.87,-72 952.12,-72 952.12,-108"/>
<text text-anchor="middle" x="881.5" y="-84.95" font-family="Times,serif" font-size="14.00">random_string.random</text>
</g>
<!-- [root] random_string.random (expand)&#45;&gt;[root] provider[&quot;registry.terraform.io/hashicorp/random&quot;] -->
<g id="edge8" class="edge">
<title>[root] random_string.random (expand)&#45;&gt;[root] provider[&quot;registry.terraform.io/hashicorp/random&quot;]</title>
<path fill="none" stroke="black" d="M864.19,-71.7C855.55,-63.05 844.95,-52.46 835.54,-43.04"/>
<polygon fill="black" stroke="black" points="838.26,-40.81 828.71,-36.21 833.31,-45.76 838.26,-40.81"/>
</g>
<!-- [root] var.content -->
<g id="node6" class="node">
<title>[root] var.content</title>
<polygon fill="none" stroke="black" points="312.5,-252 242.5,-252 242.5,-216 318.5,-216 318.5,-246 312.5,-252"/>
<polyline fill="none" stroke="black" points="312.5,-252 312.5,-246"/>
<polyline fill="none" stroke="black" points="318.5,-246 312.5,-246"/>
<text text-anchor="middle" x="280.5" y="-228.95" font-family="Times,serif" font-size="14.00">var.content</text>
</g>
<!-- [root] provider[&quot;registry.terraform.io/hashicorp/local&quot;] (close) -->
<g id="node8" class="node">
<title>[root] provider[&quot;registry.terraform.io/hashicorp/local&quot;] (close)</title>
<ellipse fill="none" stroke="black" cx="578.5" cy="-234" rx="241.74" ry="18"/>
<text text-anchor="middle" x="578.5" y="-228.95" font-family="Times,serif" font-size="14.00">[root] provider[&quot;registry.terraform.io/hashicorp/local&quot;] (close)</text>
</g>
<!-- [root] provider[&quot;registry.terraform.io/hashicorp/local&quot;] (close)&#45;&gt;[root] local_file.pet (expand) -->
<g id="edge4" class="edge">
<title>[root] provider[&quot;registry.terraform.io/hashicorp/local&quot;] (close)&#45;&gt;[root] local_file.pet (expand)</title>
<path fill="none" stroke="black" d="M575.78,-215.7C574.62,-208.32 573.24,-199.52 571.94,-191.25"/>
<polygon fill="black" stroke="black" points="575.43,-190.93 570.42,-181.6 568.51,-192.02 575.43,-190.93"/>
</g>
<!-- [root] provider[&quot;registry.terraform.io/hashicorp/random&quot;] (close) -->
<g id="node9" class="node">
<title>[root] provider[&quot;registry.terraform.io/hashicorp/random&quot;] (close)</title>
<ellipse fill="none" stroke="black" cx="881.5" cy="-162" rx="252.49" ry="18"/>
<text text-anchor="middle" x="881.5" y="-156.95" font-family="Times,serif" font-size="14.00">[root] provider[&quot;registry.terraform.io/hashicorp/random&quot;] (close)</text>
</g>
<!-- [root] provider[&quot;registry.terraform.io/hashicorp/random&quot;] (close)&#45;&gt;[root] random_pet.pet (expand) -->
<g id="edge5" class="edge">
<title>[root] provider[&quot;registry.terraform.io/hashicorp/random&quot;] (close)&#45;&gt;[root] random_pet.pet (expand)</title>
<path fill="none" stroke="black" d="M847.14,-143.7C829.01,-134.57 806.56,-123.26 787.1,-113.46"/>
<polygon fill="black" stroke="black" points="788.8,-110.4 778.29,-109.03 785.65,-116.65 788.8,-110.4"/>
</g>
<!-- [root] provider[&quot;registry.terraform.io/hashicorp/random&quot;] (close)&#45;&gt;[root] random_string.random (expand) -->
<g id="edge6" class="edge">
<title>[root] provider[&quot;registry.terraform.io/hashicorp/random&quot;] (close)&#45;&gt;[root] random_string.random (expand)</title>
<path fill="none" stroke="black" d="M881.5,-143.7C881.5,-136.41 881.5,-127.73 881.5,-119.54"/>
<polygon fill="black" stroke="black" points="885,-119.62 881.5,-109.62 878,-119.62 885,-119.62"/>
</g>
<!-- [root] root -->
<g id="node10" class="node">
<title>[root] root</title>
<ellipse fill="none" stroke="black" cx="578.5" cy="-306" rx="49.3" ry="18"/>
<text text-anchor="middle" x="578.5" y="-300.95" font-family="Times,serif" font-size="14.00">[root] root</text>
</g>
<!-- [root] root&#45;&gt;[root] var.content -->
<g id="edge11" class="edge">
<title>[root] root&#45;&gt;[root] var.content</title>
<path fill="none" stroke="black" d="M534.52,-297.63C486.31,-289.13 406.6,-273.83 329.66,-252.42"/>
<polygon fill="black" stroke="black" points="330.86,-249.12 320.29,-249.77 328.96,-255.86 330.86,-249.12"/>
</g>
<!-- [root] root&#45;&gt;[root] provider[&quot;registry.terraform.io/hashicorp/local&quot;] (close) -->
<g id="edge9" class="edge">
<title>[root] root&#45;&gt;[root] provider[&quot;registry.terraform.io/hashicorp/local&quot;] (close)</title>
<path fill="none" stroke="black" d="M578.5,-287.7C578.5,-280.41 578.5,-271.73 578.5,-263.54"/>
<polygon fill="black" stroke="black" points="582,-263.62 578.5,-253.62 575,-263.62 582,-263.62"/>
</g>
<!-- [root] root&#45;&gt;[root] provider[&quot;registry.terraform.io/hashicorp/random&quot;] (close) -->
<g id="edge10" class="edge">
<title>[root] root&#45;&gt;[root] provider[&quot;registry.terraform.io/hashicorp/random&quot;] (close)</title>
<path fill="none" stroke="black" d="M625.25,-299.7C688.56,-291.76 797.35,-275.19 829.5,-252 850.22,-237.05 864,-211.09 872.14,-191.06"/>
<polygon fill="black" stroke="black" points="875.39,-192.36 875.65,-181.77 868.84,-189.89 875.39,-192.36"/>
</g>
</g>
</svg>
